STARTFONT 2.1
FONT -FontForge-Monozela-Medium-R-Normal--24-240-75-75-P-120-ISO10646-1
SIZE 24 75 75
FONTBOUNDINGBOX 12 24 0 -6
COMMENT "Generated by fontforge, http://fontforge.sourceforge.net"
COMMENT "Copyright (c) 2020, Laurent Moussault"
STARTPROPERTIES 32
FOUNDRY "FontForge"
FAMILY_NAME "Monozela"
WEIGHT_NAME "Medium"
SLANT "R"
SETWIDTH_NAME "Normal"
ADD_STYLE_NAME ""
PIXEL_SIZE 24
POINT_SIZE 240
RESOLUTION_X 75
RESOLUTION_Y 75
SPACING "P"
AVERAGE_WIDTH 120
CHARSET_REGISTRY "ISO10646"
CHARSET_ENCODING "1"
FONTNAME_REGISTRY ""
CHARSET_COLLECTIONS "ISO10646-1"
FONT_NAME "Monozela"
FACE_NAME "Monozela"
COPYRIGHT "Copyright (c) 2020, Laurent Moussault"
FONT_VERSION "001.000"
FONT_ASCENT 18
FONT_DESCENT 6
UNDERLINE_POSITION 0
UNDERLINE_THICKNESS 2
X_HEIGHT 8
CAP_HEIGHT 18
RAW_ASCENT 750
RAW_DESCENT 250
NORM_SPACE 12
FIGURE_WIDTH 12
AVG_LOWERCASE_WIDTH 120
AVG_UPPERCASE_WIDTH 120
ENDPROPERTIES
CHARS 144
STARTCHAR uni0000
ENCODING 0
SWIDTH 500 0
DWIDTH 12 0
BBX 10 16 0 0
BITMAP
F3C0
F3C0
C0C0
C0C0
0000
0000
C0C0
C0C0
C0C0
C0C0
0000
0000
C0C0
C0C0
F3C0
F3C0
ENDCHAR
STARTCHAR uni0001
ENCODING 1
SWIDTH 500 0
DWIDTH 12 0
BBX 10 10 0 4
BITMAP
0C00
0C00
3F00
3F00
FFC0
FFC0
3F00
3F00
0C00
0C00
ENDCHAR
STARTCHAR uni0002
ENCODING 2
SWIDTH 500 0
DWIDTH 12 0
BBX 12 24 0 -6
BITMAP
CCC0
CCC0
3330
3330
CCC0
CCC0
3330
3330
CCC0
CCC0
3330
3330
CCC0
CCC0
3330
3330
CCC0
CCC0
3330
3330
CCC0
CCC0
3330
3330
ENDCHAR
STARTCHAR uni0003
ENCODING 3
SWIDTH 500 0
DWIDTH 12 0
BBX 6 14 2 2
BITMAP
CC
CC
FC
FC
CC
CC
00
00
FC
FC
30
30
30
30
ENDCHAR
STARTCHAR uni0004
ENCODING 4
SWIDTH 500 0
DWIDTH 12 0
BBX 6 14 2 2
BITMAP
FC
FC
F0
F0
C0
C0
00
00
FC
FC
F0
F0
C0
C0
ENDCHAR
STARTCHAR uni0005
ENCODING 5
SWIDTH 500 0
DWIDTH 12 0
BBX 6 14 2 2
BITMAP
FC
FC
C0
C0
FC
FC
00
00
F0
F0
FC
FC
CC
CC
ENDCHAR
STARTCHAR uni0006
ENCODING 6
SWIDTH 500 0
DWIDTH 12 0
BBX 6 14 4 2
BITMAP
C0
C0
C0
C0
FC
FC
00
00
FC
FC
F0
F0
C0
C0
ENDCHAR
STARTCHAR uni0007
ENCODING 7
SWIDTH 500 0
DWIDTH 12 0
BBX 8 8 2 8
BITMAP
3C
3C
C3
C3
C3
C3
3C
3C
ENDCHAR
STARTCHAR uni0008
ENCODING 8
SWIDTH 500 0
DWIDTH 12 0
BBX 10 14 0 2
BITMAP
0C00
0C00
0C00
0C00
FFC0
FFC0
0C00
0C00
0C00
0C00
0000
0000
FFC0
FFC0
ENDCHAR
STARTCHAR uni0009
ENCODING 9
SWIDTH 500 0
DWIDTH 12 0
BBX 10 14 0 2
BITMAP
F0C0
F0C0
CCC0
CCC0
C3C0
C3C0
0000
0000
3000
3000
3000
3000
3F00
3F00
ENDCHAR
STARTCHAR uni000A
ENCODING 10
SWIDTH 500 0
DWIDTH 12 0
BBX 6 14 2 2
BITMAP
CC
CC
CC
CC
30
30
00
00
FC
FC
30
30
30
30
ENDCHAR
STARTCHAR uni000B
ENCODING 11
SWIDTH 500 0
DWIDTH 12 0
BBX 6 12 0 6
BITMAP
0C
0C
0C
0C
0C
0C
0C
0C
0C
0C
FC
FC
ENDCHAR
STARTCHAR uni000C
ENCODING 12
SWIDTH 500 0
DWIDTH 12 0
BBX 6 14 0 -6
BITMAP
FC
FC
0C
0C
0C
0C
0C
0C
0C
0C
0C
0C
0C
0C
ENDCHAR
STARTCHAR uni000D
ENCODING 13
SWIDTH 500 0
DWIDTH 12 0
BBX 8 14 4 -6
BITMAP
FF
FF
C0
C0
C0
C0
C0
C0
C0
C0
C0
C0
C0
C0
ENDCHAR
STARTCHAR uni000E
ENCODING 14
SWIDTH 500 0
DWIDTH 12 0
BBX 8 12 4 6
BITMAP
C0
C0
C0
C0
C0
C0
C0
C0
C0
C0
FF
FF
ENDCHAR
STARTCHAR uni000F
ENCODING 15
SWIDTH 500 0
DWIDTH 12 0
BBX 12 24 0 -6
BITMAP
0C00
0C00
0C00
0C00
0C00
0C00
0C00
0C00
0C00
0C00
FFF0
FFF0
0C00
0C00
0C00
0C00
0C00
0C00
0C00
0C00
0C00
0C00
0C00
0C00
ENDCHAR
STARTCHAR uni0010
ENCODING 16
SWIDTH 500 0
DWIDTH 12 0
BBX 10 16 0 0
BITMAP
F3C0
F3C0
C0C0
C0C0
0000
0000
C0C0
C0C0
C0C0
C0C0
0000
0000
C0C0
C0C0
F3C0
F3C0
ENDCHAR
STARTCHAR uni0011
ENCODING 17
SWIDTH 500 0
DWIDTH 12 0
BBX 10 16 0 0
BITMAP
F3C0
F3C0
C0C0
C0C0
0000
0000
C0C0
C0C0
C0C0
C0C0
0000
0000
C0C0
C0C0
F3C0
F3C0
ENDCHAR
STARTCHAR uni0012
ENCODING 18
SWIDTH 500 0
DWIDTH 12 0
BBX 12 2 0 6
BITMAP
FFF0
FFF0
ENDCHAR
STARTCHAR uni0013
ENCODING 19
SWIDTH 500 0
DWIDTH 12 0
BBX 10 16 0 0
BITMAP
F3C0
F3C0
C0C0
C0C0
0000
0000
C0C0
C0C0
C0C0
C0C0
0000
0000
C0C0
C0C0
F3C0
F3C0
ENDCHAR
STARTCHAR uni0014
ENCODING 20
SWIDTH 500 0
DWIDTH 12 0
BBX 10 16 0 0
BITMAP
F3C0
F3C0
C0C0
C0C0
0000
0000
C0C0
C0C0
C0C0
C0C0
0000
0000
C0C0
C0C0
F3C0
F3C0
ENDCHAR
STARTCHAR uni0015
ENCODING 21
SWIDTH 500 0
DWIDTH 12 0
BBX 8 24 4 -6
BITMAP
C0
C0
C0
C0
C0
C0
C0
C0
C0
C0
FF
FF
C0
C0
C0
C0
C0
C0
C0
C0
C0
C0
C0
C0
ENDCHAR
STARTCHAR uni0016
ENCODING 22
SWIDTH 500 0
DWIDTH 12 0
BBX 6 24 0 -6
BITMAP
0C
0C
0C
0C
0C
0C
0C
0C
0C
0C
FC
FC
0C
0C
0C
0C
0C
0C
0C
0C
0C
0C
0C
0C
ENDCHAR
STARTCHAR uni0017
ENCODING 23
SWIDTH 500 0
DWIDTH 12 0
BBX 12 12 0 6
BITMAP
0C00
0C00
0C00
0C00
0C00
0C00
0C00
0C00
0C00
0C00
FFF0
FFF0
ENDCHAR
STARTCHAR uni0018
ENCODING 24
SWIDTH 500 0
DWIDTH 12 0
BBX 12 14 0 -6
BITMAP
FFF0
FFF0
0C00
0C00
0C00
0C00
0C00
0C00
0C00
0C00
0C00
0C00
0C00
0C00
ENDCHAR
STARTCHAR uni0019
ENCODING 25
SWIDTH 500 0
DWIDTH 12 0
BBX 2 24 4 -6
BITMAP
C0
C0
C0
C0
C0
C0
C0
C0
C0
C0
C0
C0
C0
C0
C0
C0
C0
C0
C0
C0
C0
C0
C0
C0
ENDCHAR
STARTCHAR uni001A
ENCODING 26
SWIDTH 500 0
DWIDTH 12 0
BBX 8 14 2 2
BITMAP
0C
0C
30
30
C0
C0
30
30
0C
0C
00
00
FF
FF
ENDCHAR
STARTCHAR uni001B
ENCODING 27
SWIDTH 500 0
DWIDTH 12 0
BBX 8 14 2 2
BITMAP
30
30
0C
0C
03
03
0C
0C
30
30
00
00
FF
FF
ENDCHAR
STARTCHAR uni001C
ENCODING 28
SWIDTH 500 0
DWIDTH 12 0
BBX 10 10 0 0
BITMAP
FFC0
FFC0
C0C0
C0C0
C0C0
C0C0
C0C0
C0C0
C0C0
C0C0
ENDCHAR
STARTCHAR uni001D
ENCODING 29
SWIDTH 500 0
DWIDTH 12 0
BBX 10 10 0 2
BITMAP
0300
0300
FFC0
FFC0
0C00
0C00
FFC0
FFC0
3000
3000
ENDCHAR
STARTCHAR uni001E
ENCODING 30
SWIDTH 500 0
DWIDTH 12 0
BBX 10 16 0 0
BITMAP
0F00
0F00
30C0
30C0
3000
3000
FF00
FF00
3000
3000
3000
3000
30C0
30C0
FFC0
FFC0
ENDCHAR
STARTCHAR uni001F
ENCODING 31
SWIDTH 500 0
DWIDTH 12 0
BBX 4 4 4 6
BITMAP
F0
F0
F0
F0
ENDCHAR
STARTCHAR space
ENCODING 32
SWIDTH 500 0
DWIDTH 12 0
BBX 1 1 1 0
BITMAP
00
ENDCHAR
STARTCHAR exclam
ENCODING 33
SWIDTH 500 0
DWIDTH 12 0
BBX 2 12 4 0
BITMAP
C0
C0
C0
C0
C0
C0
C0
C0
00
00
C0
C0
ENDCHAR
STARTCHAR quotedbl
ENCODING 34
SWIDTH 500 0
DWIDTH 12 0
BBX 6 4 2 12
BITMAP
CC
CC
CC
CC
ENDCHAR
STARTCHAR numbersign
ENCODING 35
SWIDTH 500 0
DWIDTH 12 0
BBX 10 14 0 0
BITMAP
3300
3300
3300
3300
FFC0
FFC0
3300
3300
FFC0
FFC0
3300
3300
3300
3300
ENDCHAR
STARTCHAR dollar
ENCODING 36
SWIDTH 500 0
DWIDTH 12 0
BBX 10 14 0 0
BITMAP
0C00
0C00
3FC0
3FC0
CC00
CC00
3F00
3F00
0CC0
0CC0
FF00
FF00
0C00
0C00
ENDCHAR
STARTCHAR percent
ENCODING 37
SWIDTH 500 0
DWIDTH 12 0
BBX 10 14 0 0
BITMAP
F000
F000
F0C0
F0C0
0300
0300
0C00
0C00
3000
3000
C3C0
C3C0
03C0
03C0
ENDCHAR
STARTCHAR ampersand
ENCODING 38
SWIDTH 500 0
DWIDTH 12 0
BBX 10 14 0 0
BITMAP
3000
3000
CC00
CC00
3000
3000
CCC0
CCC0
C300
C300
C300
C300
3CC0
3CC0
ENDCHAR
STARTCHAR quotesingle
ENCODING 39
SWIDTH 500 0
DWIDTH 12 0
BBX 2 6 4 10
BITMAP
C0
C0
C0
C0
C0
C0
ENDCHAR
STARTCHAR parenleft
ENCODING 40
SWIDTH 500 0
DWIDTH 12 0
BBX 6 18 2 -2
BITMAP
0C
0C
30
30
C0
C0
C0
C0
C0
C0
C0
C0
C0
C0
30
30
0C
0C
ENDCHAR
STARTCHAR parenright
ENCODING 41
SWIDTH 500 0
DWIDTH 12 0
BBX 6 18 2 -2
BITMAP
C0
C0
30
30
0C
0C
0C
0C
0C
0C
0C
0C
0C
0C
30
30
C0
C0
ENDCHAR
STARTCHAR asterisk
ENCODING 42
SWIDTH 500 0
DWIDTH 12 0
BBX 10 10 0 2
BITMAP
0C00
0C00
CCC0
CCC0
3F00
3F00
CCC0
CCC0
0C00
0C00
ENDCHAR
STARTCHAR plus
ENCODING 43
SWIDTH 500 0
DWIDTH 12 0
BBX 10 10 0 2
BITMAP
0C00
0C00
0C00
0C00
FFC0
FFC0
0C00
0C00
0C00
0C00
ENDCHAR
STARTCHAR comma
ENCODING 44
SWIDTH 500 0
DWIDTH 12 0
BBX 4 6 2 -4
BITMAP
30
30
30
30
C0
C0
ENDCHAR
STARTCHAR hyphen
ENCODING 45
SWIDTH 500 0
DWIDTH 12 0
BBX 8 2 0 6
BITMAP
FF
FF
ENDCHAR
STARTCHAR period
ENCODING 46
SWIDTH 500 0
DWIDTH 12 0
BBX 2 2 4 0
BITMAP
C0
C0
ENDCHAR
STARTCHAR slash
ENCODING 47
SWIDTH 500 0
DWIDTH 12 0
BBX 6 18 2 -2
BITMAP
0C
0C
0C
0C
0C
0C
30
30
30
30
30
30
C0
C0
C0
C0
C0
C0
ENDCHAR
STARTCHAR zero
ENCODING 48
SWIDTH 500 0
DWIDTH 12 0
BBX 10 14 0 0
BITMAP
3F00
3F00
C0C0
C0C0
C3C0
C3C0
CCC0
CCC0
F0C0
F0C0
C0C0
C0C0
3F00
3F00
ENDCHAR
STARTCHAR one
ENCODING 49
SWIDTH 500 0
DWIDTH 12 0
BBX 10 14 0 0
BITMAP
0C00
0C00
3C00
3C00
CC00
CC00
0C00
0C00
0C00
0C00
0C00
0C00
FFC0
FFC0
ENDCHAR
STARTCHAR two
ENCODING 50
SWIDTH 500 0
DWIDTH 12 0
BBX 10 14 0 0
BITMAP
3F00
3F00
C0C0
C0C0
00C0
00C0
0300
0300
0C00
0C00
3000
3000
FFC0
FFC0
ENDCHAR
STARTCHAR three
ENCODING 51
SWIDTH 500 0
DWIDTH 12 0
BBX 10 14 0 0
BITMAP
3F00
3F00
C0C0
C0C0
00C0
00C0
0F00
0F00
00C0
00C0
C0C0
C0C0
3F00
3F00
ENDCHAR
STARTCHAR four
ENCODING 52
SWIDTH 500 0
DWIDTH 12 0
BBX 10 16 0 -2
BITMAP
0C00
0C00
0C00
0C00
3000
3000
3300
3300
C300
C300
FFC0
FFC0
0300
0300
0300
0300
ENDCHAR
STARTCHAR five
ENCODING 53
SWIDTH 500 0
DWIDTH 12 0
BBX 10 14 0 0
BITMAP
FFC0
FFC0
C000
C000
FF00
FF00
00C0
00C0
00C0
00C0
C0C0
C0C0
3F00
3F00
ENDCHAR
STARTCHAR six
ENCODING 54
SWIDTH 500 0
DWIDTH 12 0
BBX 10 14 0 0
BITMAP
0F00
0F00
3000
3000
C000
C000
FF00
FF00
C0C0
C0C0
C0C0
C0C0
3F00
3F00
ENDCHAR
STARTCHAR seven
ENCODING 55
SWIDTH 500 0
DWIDTH 12 0
BBX 10 14 0 0
BITMAP
FFC0
FFC0
00C0
00C0
0300
0300
0C00
0C00
3000
3000
3000
3000
3000
3000
ENDCHAR
STARTCHAR eight
ENCODING 56
SWIDTH 500 0
DWIDTH 12 0
BBX 10 14 0 0
BITMAP
3F00
3F00
C0C0
C0C0
C0C0
C0C0
3F00
3F00
C0C0
C0C0
C0C0
C0C0
3F00
3F00
ENDCHAR
STARTCHAR nine
ENCODING 57
SWIDTH 500 0
DWIDTH 12 0
BBX 10 14 0 0
BITMAP
3F00
3F00
C0C0
C0C0
C0C0
C0C0
3FC0
3FC0
00C0
00C0
0300
0300
3C00
3C00
ENDCHAR
STARTCHAR colon
ENCODING 58
SWIDTH 500 0
DWIDTH 12 0
BBX 2 8 4 2
BITMAP
C0
C0
00
00
00
00
C0
C0
ENDCHAR
STARTCHAR semicolon
ENCODING 59
SWIDTH 500 0
DWIDTH 12 0
BBX 4 12 2 -4
BITMAP
30
30
00
00
00
00
30
30
30
30
C0
C0
ENDCHAR
STARTCHAR less
ENCODING 60
SWIDTH 500 0
DWIDTH 12 0
BBX 8 14 0 0
BITMAP
03
03
0C
0C
30
30
C0
C0
30
30
0C
0C
03
03
ENDCHAR
STARTCHAR equal
ENCODING 61
SWIDTH 500 0
DWIDTH 12 0
BBX 8 6 0 4
BITMAP
FF
FF
00
00
FF
FF
ENDCHAR
STARTCHAR greater
ENCODING 62
SWIDTH 500 0
DWIDTH 12 0
BBX 8 14 0 0
BITMAP
C0
C0
30
30
0C
0C
03
03
0C
0C
30
30
C0
C0
ENDCHAR
STARTCHAR question
ENCODING 63
SWIDTH 500 0
DWIDTH 12 0
BBX 10 14 0 0
BITMAP
3F00
3F00
C0C0
C0C0
00C0
00C0
0300
0300
0C00
0C00
0000
0000
0C00
0C00
ENDCHAR
STARTCHAR at
ENCODING 64
SWIDTH 500 0
DWIDTH 12 0
BBX 10 14 0 0
BITMAP
3F00
3F00
C0C0
C0C0
CCC0
CCC0
CCC0
CCC0
C300
C300
3000
3000
0F00
0F00
ENDCHAR
STARTCHAR A
ENCODING 65
SWIDTH 500 0
DWIDTH 12 0
BBX 10 14 0 0
BITMAP
3F00
3F00
C0C0
C0C0
C0C0
C0C0
FFC0
FFC0
C0C0
C0C0
C0C0
C0C0
C0C0
C0C0
ENDCHAR
STARTCHAR B
ENCODING 66
SWIDTH 500 0
DWIDTH 12 0
BBX 10 14 0 0
BITMAP
FF00
FF00
C0C0
C0C0
C0C0
C0C0
FF00
FF00
C0C0
C0C0
C0C0
C0C0
FF00
FF00
ENDCHAR
STARTCHAR C
ENCODING 67
SWIDTH 500 0
DWIDTH 12 0
BBX 10 14 0 0
BITMAP
3F00
3F00
C0C0
C0C0
C000
C000
C000
C000
C000
C000
C0C0
C0C0
3F00
3F00
ENDCHAR
STARTCHAR D
ENCODING 68
SWIDTH 500 0
DWIDTH 12 0
BBX 10 14 0 0
BITMAP
FC00
FC00
C300
C300
C0C0
C0C0
C0C0
C0C0
C0C0
C0C0
C300
C300
FC00
FC00
ENDCHAR
STARTCHAR E
ENCODING 69
SWIDTH 500 0
DWIDTH 12 0
BBX 10 14 0 0
BITMAP
FFC0
FFC0
C000
C000
C000
C000
FC00
FC00
C000
C000
C000
C000
FFC0
FFC0
ENDCHAR
STARTCHAR F
ENCODING 70
SWIDTH 500 0
DWIDTH 12 0
BBX 10 14 0 0
BITMAP
FFC0
FFC0
C000
C000
C000
C000
FC00
FC00
C000
C000
C000
C000
C000
C000
ENDCHAR
STARTCHAR G
ENCODING 71
SWIDTH 500 0
DWIDTH 12 0
BBX 10 14 0 0
BITMAP
3F00
3F00
C0C0
C0C0
C000
C000
C000
C000
C3C0
C3C0
C0C0
C0C0
3FC0
3FC0
ENDCHAR
STARTCHAR H
ENCODING 72
SWIDTH 500 0
DWIDTH 12 0
BBX 10 14 0 0
BITMAP
C0C0
C0C0
C0C0
C0C0
C0C0
C0C0
FFC0
FFC0
C0C0
C0C0
C0C0
C0C0
C0C0
C0C0
ENDCHAR
STARTCHAR I
ENCODING 73
SWIDTH 500 0
DWIDTH 12 0
BBX 10 14 0 0
BITMAP
FFC0
FFC0
0C00
0C00
0C00
0C00
0C00
0C00
0C00
0C00
0C00
0C00
FFC0
FFC0
ENDCHAR
STARTCHAR J
ENCODING 74
SWIDTH 500 0
DWIDTH 12 0
BBX 10 14 0 0
BITMAP
0FC0
0FC0
00C0
00C0
00C0
00C0
00C0
00C0
00C0
00C0
C0C0
C0C0
3F00
3F00
ENDCHAR
STARTCHAR K
ENCODING 75
SWIDTH 500 0
DWIDTH 12 0
BBX 10 14 0 0
BITMAP
C0C0
C0C0
C300
C300
CC00
CC00
F000
F000
CC00
CC00
C300
C300
C0C0
C0C0
ENDCHAR
STARTCHAR L
ENCODING 76
SWIDTH 500 0
DWIDTH 12 0
BBX 10 14 0 0
BITMAP
C000
C000
C000
C000
C000
C000
C000
C000
C000
C000
C000
C000
FFC0
FFC0
ENDCHAR
STARTCHAR M
ENCODING 77
SWIDTH 500 0
DWIDTH 12 0
BBX 10 14 0 0
BITMAP
C0C0
C0C0
F3C0
F3C0
CCC0
CCC0
CCC0
CCC0
C0C0
C0C0
C0C0
C0C0
C0C0
C0C0
ENDCHAR
STARTCHAR N
ENCODING 78
SWIDTH 500 0
DWIDTH 12 0
BBX 10 14 0 0
BITMAP
C0C0
C0C0
F0C0
F0C0
CCC0
CCC0
C3C0
C3C0
C0C0
C0C0
C0C0
C0C0
C0C0
C0C0
ENDCHAR
STARTCHAR O
ENCODING 79
SWIDTH 500 0
DWIDTH 12 0
BBX 10 14 0 0
BITMAP
3F00
3F00
C0C0
C0C0
C0C0
C0C0
C0C0
C0C0
C0C0
C0C0
C0C0
C0C0
3F00
3F00
ENDCHAR
STARTCHAR P
ENCODING 80
SWIDTH 500 0
DWIDTH 12 0
BBX 10 14 0 0
BITMAP
FF00
FF00
C0C0
C0C0
C0C0
C0C0
FF00
FF00
C000
C000
C000
C000
C000
C000
ENDCHAR
STARTCHAR Q
ENCODING 81
SWIDTH 500 0
DWIDTH 12 0
BBX 10 14 0 0
BITMAP
3F00
3F00
C0C0
C0C0
C0C0
C0C0
C0C0
C0C0
CCC0
CCC0
C300
C300
3CC0
3CC0
ENDCHAR
STARTCHAR R
ENCODING 82
SWIDTH 500 0
DWIDTH 12 0
BBX 10 14 0 0
BITMAP
FF00
FF00
C0C0
C0C0
C0C0
C0C0
FF00
FF00
CC00
CC00
C300
C300
C0C0
C0C0
ENDCHAR
STARTCHAR S
ENCODING 83
SWIDTH 500 0
DWIDTH 12 0
BBX 10 14 0 0
BITMAP
3F00
3F00
C0C0
C0C0
C000
C000
3F00
3F00
00C0
00C0
C0C0
C0C0
3F00
3F00
ENDCHAR
STARTCHAR T
ENCODING 84
SWIDTH 500 0
DWIDTH 12 0
BBX 10 14 0 0
BITMAP
FFC0
FFC0
0C00
0C00
0C00
0C00
0C00
0C00
0C00
0C00
0C00
0C00
0C00
0C00
ENDCHAR
STARTCHAR U
ENCODING 85
SWIDTH 500 0
DWIDTH 12 0
BBX 10 14 0 0
BITMAP
C0C0
C0C0
C0C0
C0C0
C0C0
C0C0
C0C0
C0C0
C0C0
C0C0
C0C0
C0C0
3F00
3F00
ENDCHAR
STARTCHAR V
ENCODING 86
SWIDTH 500 0
DWIDTH 12 0
BBX 10 14 0 0
BITMAP
C0C0
C0C0
C0C0
C0C0
C0C0
C0C0
3300
3300
3300
3300
0C00
0C00
0C00
0C00
ENDCHAR
STARTCHAR W
ENCODING 87
SWIDTH 500 0
DWIDTH 12 0
BBX 10 14 0 0
BITMAP
C0C0
C0C0
C0C0
C0C0
CCC0
CCC0
CCC0
CCC0
CCC0
CCC0
CCC0
CCC0
3300
3300
ENDCHAR
STARTCHAR X
ENCODING 88
SWIDTH 500 0
DWIDTH 12 0
BBX 10 14 0 0
BITMAP
C0C0
C0C0
C0C0
C0C0
3300
3300
0C00
0C00
3300
3300
C0C0
C0C0
C0C0
C0C0
ENDCHAR
STARTCHAR Y
ENCODING 89
SWIDTH 500 0
DWIDTH 12 0
BBX 10 14 0 0
BITMAP
C0C0
C0C0
C0C0
C0C0
C0C0
C0C0
3300
3300
0C00
0C00
0C00
0C00
0C00
0C00
ENDCHAR
STARTCHAR Z
ENCODING 90
SWIDTH 500 0
DWIDTH 12 0
BBX 10 14 0 0
BITMAP
FFC0
FFC0
00C0
00C0
0300
0300
0C00
0C00
3000
3000
C000
C000
FFC0
FFC0
ENDCHAR
STARTCHAR bracketleft
ENCODING 91
SWIDTH 500 0
DWIDTH 12 0
BBX 6 18 2 -2
BITMAP
FC
FC
C0
C0
C0
C0
C0
C0
C0
C0
C0
C0
C0
C0
C0
C0
FC
FC
ENDCHAR
STARTCHAR backslash
ENCODING 92
SWIDTH 500 0
DWIDTH 12 0
BBX 6 18 4 -2
BITMAP
C0
C0
C0
C0
C0
C0
30
30
30
30
30
30
0C
0C
0C
0C
0C
0C
ENDCHAR
STARTCHAR bracketright
ENCODING 93
SWIDTH 500 0
DWIDTH 12 0
BBX 6 18 2 -2
BITMAP
FC
FC
0C
0C
0C
0C
0C
0C
0C
0C
0C
0C
0C
0C
0C
0C
FC
FC
ENDCHAR
STARTCHAR asciicircum
ENCODING 94
SWIDTH 500 0
DWIDTH 12 0
BBX 10 6 0 10
BITMAP
0C00
0C00
3300
3300
C0C0
C0C0
ENDCHAR
STARTCHAR underscore
ENCODING 95
SWIDTH 500 0
DWIDTH 12 0
BBX 10 2 0 -2
BITMAP
FFC0
FFC0
ENDCHAR
STARTCHAR grave
ENCODING 96
SWIDTH 500 0
DWIDTH 12 0
BBX 4 4 2 12
BITMAP
C0
C0
30
30
ENDCHAR
STARTCHAR a
ENCODING 97
SWIDTH 500 0
DWIDTH 12 0
BBX 10 10 0 0
BITMAP
3F00
3F00
C0C0
C0C0
C0C0
C0C0
C3C0
C3C0
3CC0
3CC0
ENDCHAR
STARTCHAR b
ENCODING 98
SWIDTH 500 0
DWIDTH 12 0
BBX 10 14 0 0
BITMAP
C000
C000
C000
C000
FF00
FF00
C0C0
C0C0
C0C0
C0C0
C0C0
C0C0
FF00
FF00
ENDCHAR
STARTCHAR c
ENCODING 99
SWIDTH 500 0
DWIDTH 12 0
BBX 10 10 0 0
BITMAP
3F00
3F00
C0C0
C0C0
C000
C000
C000
C000
3FC0
3FC0
ENDCHAR
STARTCHAR d
ENCODING 100
SWIDTH 500 0
DWIDTH 12 0
BBX 10 14 0 0
BITMAP
00C0
00C0
00C0
00C0
3FC0
3FC0
C0C0
C0C0
C0C0
C0C0
C0C0
C0C0
3FC0
3FC0
ENDCHAR
STARTCHAR e
ENCODING 101
SWIDTH 500 0
DWIDTH 12 0
BBX 10 10 0 0
BITMAP
3F00
3F00
C0C0
C0C0
FFC0
FFC0
C000
C000
3F00
3F00
ENDCHAR
STARTCHAR f
ENCODING 102
SWIDTH 500 0
DWIDTH 12 0
BBX 10 14 0 0
BITMAP
0FC0
0FC0
3000
3000
3000
3000
FF00
FF00
3000
3000
3000
3000
3000
3000
ENDCHAR
STARTCHAR g
ENCODING 103
SWIDTH 500 0
DWIDTH 12 0
BBX 10 14 0 -4
BITMAP
3FC0
3FC0
C0C0
C0C0
C0C0
C0C0
C0C0
C0C0
3FC0
3FC0
00C0
00C0
3F00
3F00
ENDCHAR
STARTCHAR h
ENCODING 104
SWIDTH 500 0
DWIDTH 12 0
BBX 10 14 0 0
BITMAP
C000
C000
C000
C000
CF00
CF00
F0C0
F0C0
C0C0
C0C0
C0C0
C0C0
C0C0
C0C0
ENDCHAR
STARTCHAR i
ENCODING 105
SWIDTH 500 0
DWIDTH 12 0
BBX 6 14 2 0
BITMAP
30
30
00
00
F0
F0
30
30
30
30
30
30
FC
FC
ENDCHAR
STARTCHAR j
ENCODING 106
SWIDTH 500 0
DWIDTH 12 0
BBX 10 18 0 -4
BITMAP
00C0
00C0
0000
0000
03C0
03C0
00C0
00C0
00C0
00C0
00C0
00C0
00C0
00C0
C0C0
C0C0
3F00
3F00
ENDCHAR
STARTCHAR k
ENCODING 107
SWIDTH 500 0
DWIDTH 12 0
BBX 10 14 0 0
BITMAP
C000
C000
C000
C000
C0C0
C0C0
C300
C300
FC00
FC00
C300
C300
C0C0
C0C0
ENDCHAR
STARTCHAR l
ENCODING 108
SWIDTH 500 0
DWIDTH 12 0
BBX 10 14 0 0
BITMAP
F000
F000
3000
3000
3000
3000
3000
3000
3000
3000
3000
3000
0FC0
0FC0
ENDCHAR
STARTCHAR m
ENCODING 109
SWIDTH 500 0
DWIDTH 12 0
BBX 10 10 0 0
BITMAP
F300
F300
CCC0
CCC0
CCC0
CCC0
C0C0
C0C0
C0C0
C0C0
ENDCHAR
STARTCHAR n
ENCODING 110
SWIDTH 500 0
DWIDTH 12 0
BBX 10 10 0 0
BITMAP
CF00
CF00
F0C0
F0C0
C0C0
C0C0
C0C0
C0C0
C0C0
C0C0
ENDCHAR
STARTCHAR o
ENCODING 111
SWIDTH 500 0
DWIDTH 12 0
BBX 10 10 0 0
BITMAP
3F00
3F00
C0C0
C0C0
C0C0
C0C0
C0C0
C0C0
3F00
3F00
ENDCHAR
STARTCHAR p
ENCODING 112
SWIDTH 500 0
DWIDTH 12 0
BBX 10 14 0 -4
BITMAP
FF00
FF00
C0C0
C0C0
C0C0
C0C0
C0C0
C0C0
FF00
FF00
C000
C000
C000
C000
ENDCHAR
STARTCHAR q
ENCODING 113
SWIDTH 500 0
DWIDTH 12 0
BBX 10 14 0 -4
BITMAP
3FC0
3FC0
C0C0
C0C0
C0C0
C0C0
C0C0
C0C0
3FC0
3FC0
00C0
00C0
00C0
00C0
ENDCHAR
STARTCHAR r
ENCODING 114
SWIDTH 500 0
DWIDTH 12 0
BBX 10 10 0 0
BITMAP
CF00
CF00
F0C0
F0C0
C000
C000
C000
C000
C000
C000
ENDCHAR
STARTCHAR s
ENCODING 115
SWIDTH 500 0
DWIDTH 12 0
BBX 10 10 0 0
BITMAP
3F00
3F00
C000
C000
3F00
3F00
00C0
00C0
FF00
FF00
ENDCHAR
STARTCHAR t
ENCODING 116
SWIDTH 500 0
DWIDTH 12 0
BBX 10 14 0 0
BITMAP
3000
3000
3000
3000
FF00
FF00
3000
3000
3000
3000
3000
3000
0FC0
0FC0
ENDCHAR
STARTCHAR u
ENCODING 117
SWIDTH 500 0
DWIDTH 12 0
BBX 10 10 0 0
BITMAP
C0C0
C0C0
C0C0
C0C0
C0C0
C0C0
C3C0
C3C0
3CC0
3CC0
ENDCHAR
STARTCHAR v
ENCODING 118
SWIDTH 500 0
DWIDTH 12 0
BBX 10 10 0 0
BITMAP
C0C0
C0C0
C0C0
C0C0
3300
3300
3300
3300
0C00
0C00
ENDCHAR
STARTCHAR w
ENCODING 119
SWIDTH 500 0
DWIDTH 12 0
BBX 10 10 0 0
BITMAP
C0C0
C0C0
C0C0
C0C0
CCC0
CCC0
CCC0
CCC0
3300
3300
ENDCHAR
STARTCHAR x
ENCODING 120
SWIDTH 500 0
DWIDTH 12 0
BBX 10 10 0 0
BITMAP
C0C0
C0C0
3300
3300
0C00
0C00
3300
3300
C0C0
C0C0
ENDCHAR
STARTCHAR y
ENCODING 121
SWIDTH 500 0
DWIDTH 12 0
BBX 10 14 0 -4
BITMAP
C0C0
C0C0
C0C0
C0C0
3300
3300
3300
3300
0C00
0C00
0C00
0C00
F000
F000
ENDCHAR
STARTCHAR z
ENCODING 122
SWIDTH 500 0
DWIDTH 12 0
BBX 10 10 0 0
BITMAP
FFC0
FFC0
0300
0300
0C00
0C00
3000
3000
FFC0
FFC0
ENDCHAR
STARTCHAR braceleft
ENCODING 123
SWIDTH 500 0
DWIDTH 12 0
BBX 8 18 0 -2
BITMAP
0F
0F
30
30
30
30
0C
0C
F0
F0
0C
0C
30
30
30
30
0F
0F
ENDCHAR
STARTCHAR bar
ENCODING 124
SWIDTH 500 0
DWIDTH 12 0
BBX 2 22 4 -4
BITMAP
C0
C0
C0
C0
C0
C0
C0
C0
C0
C0
C0
C0
C0
C0
C0
C0
C0
C0
C0
C0
C0
C0
ENDCHAR
STARTCHAR braceright
ENCODING 125
SWIDTH 500 0
DWIDTH 12 0
BBX 8 18 2 -2
BITMAP
F0
F0
0C
0C
0C
0C
30
30
0F
0F
30
30
0C
0C
0C
0C
F0
F0
ENDCHAR
STARTCHAR asciitilde
ENCODING 126
SWIDTH 500 0
DWIDTH 12 0
BBX 10 4 0 4
BITMAP
3CC0
3CC0
CF00
CF00
ENDCHAR
STARTCHAR uni007F
ENCODING 127
SWIDTH 500 0
DWIDTH 12 0
BBX 1 1 0 0
BITMAP
00
ENDCHAR
STARTCHAR uniE0B0
ENCODING 57520
SWIDTH 500 0
DWIDTH 12 0
BBX 12 24 0 -6
BITMAP
C000
C000
F000
F000
FC00
FC00
FF00
FF00
FFC0
FFC0
FFF0
FFF0
FFF0
FFF0
FFC0
FFC0
FF00
FF00
FC00
FC00
F000
F000
C000
C000
ENDCHAR
STARTCHAR uniE0B1
ENCODING 57521
SWIDTH 500 0
DWIDTH 12 0
BBX 12 24 0 -6
BITMAP
C000
C000
3000
3000
0C00
0C00
0300
0300
00C0
00C0
0030
0030
0030
0030
00C0
00C0
0300
0300
0C00
0C00
3000
3000
C000
C000
ENDCHAR
STARTCHAR uniE0B2
ENCODING 57522
SWIDTH 500 0
DWIDTH 12 0
BBX 12 24 0 -6
BITMAP
0030
0030
00F0
00F0
03F0
03F0
0FF0
0FF0
3FF0
3FF0
FFF0
FFF0
FFF0
FFF0
3FF0
3FF0
0FF0
0FF0
03F0
03F0
00F0
00F0
0030
0030
ENDCHAR
STARTCHAR uniE0B3
ENCODING 57523
SWIDTH 500 0
DWIDTH 12 0
BBX 12 24 0 -6
BITMAP
0030
0030
00C0
00C0
0300
0300
0C00
0C00
3000
3000
C000
C000
C000
C000
3000
3000
0C00
0C00
0300
0300
00C0
00C0
0030
0030
ENDCHAR
STARTCHAR uniE0B4
ENCODING 57524
SWIDTH 500 0
DWIDTH 12 0
BBX 1 1 0 0
BITMAP
00
ENDCHAR
STARTCHAR uniE0B5
ENCODING 57525
SWIDTH 500 0
DWIDTH 12 0
BBX 1 1 0 0
BITMAP
00
ENDCHAR
STARTCHAR uniE0B6
ENCODING 57526
SWIDTH 500 0
DWIDTH 12 0
BBX 1 1 0 0
BITMAP
00
ENDCHAR
STARTCHAR uniE0B7
ENCODING 57527
SWIDTH 500 0
DWIDTH 12 0
BBX 1 1 0 0
BITMAP
00
ENDCHAR
STARTCHAR uniE0B8
ENCODING 57528
SWIDTH 500 0
DWIDTH 12 0
BBX 1 1 0 0
BITMAP
00
ENDCHAR
STARTCHAR uniE0B9
ENCODING 57529
SWIDTH 500 0
DWIDTH 12 0
BBX 1 1 0 0
BITMAP
00
ENDCHAR
STARTCHAR uniE0BA
ENCODING 57530
SWIDTH 500 0
DWIDTH 12 0
BBX 1 1 0 0
BITMAP
00
ENDCHAR
STARTCHAR uniE0BB
ENCODING 57531
SWIDTH 500 0
DWIDTH 12 0
BBX 1 1 0 0
BITMAP
00
ENDCHAR
STARTCHAR uniE0BC
ENCODING 57532
SWIDTH 500 0
DWIDTH 12 0
BBX 1 1 0 0
BITMAP
00
ENDCHAR
STARTCHAR uniE0BD
ENCODING 57533
SWIDTH 500 0
DWIDTH 12 0
BBX 1 1 0 0
BITMAP
00
ENDCHAR
STARTCHAR uniE0BE
ENCODING 57534
SWIDTH 500 0
DWIDTH 12 0
BBX 1 1 0 0
BITMAP
00
ENDCHAR
STARTCHAR uniE0BF
ENCODING 57535
SWIDTH 500 0
DWIDTH 12 0
BBX 1 1 0 0
BITMAP
00
ENDCHAR
ENDFONT
